<svg version="1.1" xmlns="http://www.w3.org/2000/svg" xmlns:xlink="http://www.w3.org/1999/xlink" width="1292" height="571" viewBox="0 0 1292 571"><defs/><g transform="matrix(1,0,0,1,0,0)"><g><g><g><path fill="none" stroke="#d3d3d3" paint-order="fill stroke markers" d=" M 0 0 L 1200 0" stroke-miterlimit="10" stroke-opacity="0.8" stroke-dasharray="5"/></g><g><path fill="none" stroke="#d3d3d3" paint-order="fill stroke markers" d=" M 0 0 L 0 800" stroke-miterlimit="10" stroke-opacity="0.8" stroke-dasharray="5"/></g></g><g id="_FBA43FB5-4D8F-42E1-B7D1-FA1BA54E26A3" transform="matrix(1,0,0,1,433.29906542056074,470)"><g><path fill="none" stroke="none"/></g><g transform="matrix(0.9345794392523364,0,0,0.8771929824561403,0,0)"><g transform="matrix(1,0,0,1,0,0)"><path fill="none" stroke="#000000" id="_FBA43FB5-4D8F-42E1-B7D1-FA1BA54E26A3?shapeType=BORDER&amp;renderType=STROKE" paint-order="fill stroke markers" d=" M 0 0 M 1.5 30 C 1.5 14.3 14.3 1.5 30 1.5 L 80 1.5 C 95.7 1.5 108.5 14.3 108.5 30 C 108.5 45.7 95.7 58.5 80 58.5 L 30 58.5 C 14.3 58.5 1.5 45.7 1.5 30 Z" stroke-miterlimit="10" stroke-width="1.5" stroke-dasharray=""/></g></g><g transform="matrix(1,0,0,1,21.57940673828125,18.5)"><text fill="#000000" stroke="none" font-family="Open Sans" font-size="10pt" font-style="normal" font-weight="normal" text-decoration="normal" x="28.42059326171875" y="10.4" text-anchor="middle" dominant-baseline="alphabetic">sintomas</text></g></g><g id="_AD631B57-3AAC-4D39-A1C8-0FC7AAEC413C" transform="matrix(1,0,0,1,743,374)"><g><path fill="none" stroke="none"/></g><g transform="matrix(0.9345794392523364,0,0,0.8771929824561403,0,0)"><g transform="matrix(1,0,0,1,0,0)"><path fill="none" stroke="#000000" id="_AD631B57-3AAC-4D39-A1C8-0FC7AAEC413C?shapeType=BORDER&amp;renderType=STROKE" paint-order="fill stroke markers" d=" M 0 0 M 1.5 30 C 1.5 14.3 14.3 1.5 30 1.5 L 80 1.5 C 95.7 1.5 108.5 14.3 108.5 30 C 108.5 45.7 95.7 58.5 80 58.5 L 30 58.5 C 14.3 58.5 1.5 45.7 1.5 30 Z" stroke-miterlimit="10" stroke-width="1.5" stroke-dasharray=""/></g></g><g transform="matrix(1,0,0,1,20.323211669921875,18.5)"><text fill="#000000" stroke="none" font-family="Open Sans" font-size="10pt" font-style="normal" font-weight="normal" text-decoration="normal" x="29.676788330078125" y="10.4" text-anchor="middle" dominant-baseline="alphabetic">profesion</text></g></g><g id="_E9FC6490-F20D-4290-8D19-492187EA1549" transform="matrix(1,0,0,1,779,238)"><g><path fill="none" stroke="none"/></g><g transform="matrix(1,0,0,1,0,0)"><path fill="none" stroke="rgb(0,0,0)" id="_E9FC6490-F20D-4290-8D19-492187EA1549?shapeType=BORDER&amp;renderType=STROKE" paint-order="fill stroke markers" d=" M 0 0 L 182 0 L 182 82 L 0 82 L 0 0 Z Z" stroke-miterlimit="10" stroke-width="1.5" stroke-dasharray=""/></g><g transform="matrix(1,0,0,1,37.03569030761719,34.5)"><text fill="#000000" stroke="none" font-family="Open Sans" font-size="10pt" font-style="normal" font-weight="normal" text-decoration="normal" x="53.96430969238281" y="10.4" text-anchor="middle" dominant-baseline="alphabetic">personal esencial</text></g></g><g id="_85BE4C24-C0F4-420B-A118-85EA8298CE68" transform="matrix(1,0,0,1,631,254)"><g><path fill="none" stroke="none"/></g><g transform="matrix(1,0,0,1,0,0)"><path fill="none" stroke="rgb(0,136,206)" id="_85BE4C24-C0F4-420B-A118-85EA8298CE68?shapeType=BORDER&amp;renderType=STROKE" paint-order="fill stroke markers" d=" M 0 0 L 100 0 L 100 50 L 0 50 L 0 0 Z Z" stroke-miterlimit="10" stroke-width="1.5" stroke-dasharray=""/></g><g transform="matrix(1,0,0,1,3.64447021484375,12)"><text fill="#000000" stroke="none" font-family="Open Sans" font-size="10pt" font-style="normal" font-weight="normal" text-decoration="normal" x="46.35552978515625" y="10.4" text-anchor="middle" dominant-baseline="alphabetic">profesional de </text><text fill="#000000" stroke="none" font-family="Open Sans" font-size="10pt" font-style="normal" font-weight="normal" text-decoration="normal" x="46.35552978515625" y="23.400000000000002" text-anchor="middle" dominant-baseline="alphabetic">      la salud       </text></g></g><g id="_B179E42B-28CF-4956-B697-3AA49D488DDD" transform="matrix(1,0,0,1,75,455)"><g><path fill="none" stroke="none"/></g><g transform="matrix(0.9345794392523364,0,0,0.8771929824561403,0,0)"><g transform="matrix(1,0,0,1,0,0)"><path fill="none" stroke="#000000" id="_B179E42B-28CF-4956-B697-3AA49D488DDD?shapeType=BORDER&amp;renderType=STROKE" paint-order="fill stroke markers" d=" M 0 0 M 1.5 30 C 1.5 14.3 14.3 1.5 30 1.5 L 80 1.5 C 95.7 1.5 108.5 14.3 108.5 30 C 108.5 45.7 95.7 58.5 80 58.5 L 30 58.5 C 14.3 58.5 1.5 45.7 1.5 30 Z" stroke-miterlimit="10" stroke-width="1.5" stroke-dasharray=""/></g></g><g transform="matrix(1,0,0,1,21.367881774902344,12)"><text fill="#000000" stroke="none" font-family="Open Sans" font-size="10pt" font-style="normal" font-weight="normal" text-decoration="normal" x="28.632118225097656" y="10.4" text-anchor="middle" dominant-baseline="alphabetic">contacto </text><text fill="#000000" stroke="none" font-family="Open Sans" font-size="10pt" font-style="normal" font-weight="normal" text-decoration="normal" x="28.632118225097656" y="23.400000000000002" text-anchor="middle" dominant-baseline="alphabetic">estrecho </text></g></g><g id="_C11A92A5-5AD1-4150-9F66-2A906201927E" transform="matrix(1,0,0,1,237.29906542056074,455)"><g><path fill="none" stroke="none"/></g><g transform="matrix(0.9345794392523364,0,0,0.8771929824561403,0,0)"><g transform="matrix(1,0,0,1,0,0)"><path fill="none" stroke="#000000" id="_C11A92A5-5AD1-4150-9F66-2A906201927E?shapeType=BORDER&amp;renderType=STROKE" paint-order="fill stroke markers" d=" M 0 0 M 1.5 30 C 1.5 14.3 14.3 1.5 30 1.5 L 80 1.5 C 95.7 1.5 108.5 14.3 108.5 30 C 108.5 45.7 95.7 58.5 80 58.5 L 30 58.5 C 14.3 58.5 1.5 45.7 1.5 30 Z" stroke-miterlimit="10" stroke-width="1.5" stroke-dasharray=""/></g></g><g transform="matrix(1,0,0,1,21.75513458251953,18.5)"><text fill="#000000" stroke="none" font-family="Open Sans" font-size="10pt" font-style="normal" font-weight="normal" text-decoration="normal" x="28.24486541748047" y="10.4" text-anchor="middle" dominant-baseline="alphabetic">direccion</text></g></g><g id="_264F932C-37CB-49A0-959A-87316922EFC5" transform="matrix(1,0,0,1,1076,385)"><g><path fill="none" stroke="none"/></g><g transform="matrix(0.9345794392523364,0,0,0.8771929824561403,0,0)"><g transform="matrix(1,0,0,1,0,0)"><path fill="none" stroke="#000000" id="_264F932C-37CB-49A0-959A-87316922EFC5?shapeType=BORDER&amp;renderType=STROKE" paint-order="fill stroke markers" d=" M 0 0 M 1.5 30 C 1.5 14.3 14.3 1.5 30 1.5 L 80 1.5 C 95.7 1.5 108.5 14.3 108.5 30 C 108.5 45.7 95.7 58.5 80 58.5 L 30 58.5 C 14.3 58.5 1.5 45.7 1.5 30 Z" stroke-miterlimit="10" stroke-width="1.5" stroke-dasharray=""/></g></g><g transform="matrix(1,0,0,1,22.85839080810547,12)"><text fill="#000000" stroke="none" font-family="Open Sans" font-size="10pt" font-style="normal" font-weight="normal" text-decoration="normal" x="27.14160919189453" y="10.4" text-anchor="middle" dominant-baseline="alphabetic">lugar de </text><text fill="#000000" stroke="none" font-family="Open Sans" font-size="10pt" font-style="normal" font-weight="normal" text-decoration="normal" x="27.14160919189453" y="23.400000000000002" text-anchor="middle" dominant-baseline="alphabetic"> trabajo  </text></g></g><g id="_991D0001-381F-4E8D-963F-2E7A0AE4644D" transform="matrix(1,0,0,1,1012,228)"><g><path fill="none" stroke="none"/></g><g transform="matrix(1,0,0,1,0,0)"><path fill="none" stroke="rgb(0,0,0)" id="_991D0001-381F-4E8D-963F-2E7A0AE4644D?shapeType=BORDER&amp;renderType=STROKE" paint-order="fill stroke markers" d=" M 0 0 L 230 0 L 230 101 L 0 101 L 0 0 Z Z" stroke-miterlimit="10" stroke-width="1.5" stroke-dasharray=""/></g><g transform="matrix(1,0,0,1,14.309181213378906,31)"><text fill="#000000" stroke="none" font-family="Open Sans" font-size="10pt" font-style="normal" font-weight="normal" text-decoration="normal" x="100.6908187866211" y="10.4" text-anchor="middle" dominant-baseline="alphabetic">resida o trabaje en instituciones </text><text fill="#000000" stroke="none" font-family="Open Sans" font-size="10pt" font-style="normal" font-weight="normal" text-decoration="normal" x="100.6908187866211" y="23.400000000000002" text-anchor="middle" dominant-baseline="alphabetic">     cerradas o de internacion       </text><text fill="#000000" stroke="none" font-family="Open Sans" font-size="10pt" font-style="normal" font-weight="normal" text-decoration="normal" x="100.6908187866211" y="36.4" text-anchor="middle" dominant-baseline="alphabetic">                   prolongada                   </text></g></g><g id="_236A1DBD-25C2-4F4F-8307-9C808EBCA729" transform="matrix(1,0,0,1,645,33)"><g><path fill="none" stroke="none"/></g><g transform="matrix(1,0,0,1,0,0)"><path fill="none" stroke="rgb(0,0,0)" id="_236A1DBD-25C2-4F4F-8307-9C808EBCA729?shapeType=BORDER&amp;renderType=STROKE" paint-order="fill stroke markers" d=" M 0 0 L 100 0 L 100 50 L 0 50 L 0 0 Z Z" stroke-miterlimit="10" stroke-width="1.5" stroke-dasharray=""/></g><g transform="matrix(1,0,0,1,22.819320678710938,18.5)"><text fill="#000000" stroke="none" font-family="Open Sans" font-size="10pt" font-style="normal" font-weight="normal" text-decoration="normal" x="27.180679321289062" y="10.4" text-anchor="middle" dominant-baseline="alphabetic">CasoDos</text></g></g><g id="_B7E9F5BC-052C-4F82-85C2-C359BC72928C" transform="matrix(1,0,0,1,243,33)"><g><path fill="none" stroke="none"/></g><g transform="matrix(0.9345794392523364,0,0,0.8771929824561403,0,0)"><g transform="matrix(1,0,0,1,0,0)"><path fill="none" stroke="rgb(0,0,0)" id="_B7E9F5BC-052C-4F82-85C2-C359BC72928C?shapeType=BORDER&amp;renderType=STROKE" paint-order="fill stroke markers" d=" M 0 0 M 16.5 1.5 L 108.5 1.5 L 108.5 43.5 L 93.5 58.5 L 1.5 58.5 L 1.5 16.5 L 16.5 1.5 Z" stroke-miterlimit="10" stroke-width="1.5" stroke-dasharray=""/></g></g><g transform="matrix(1,0,0,1,18.816429138183594,12)"><text fill="#000000" stroke="none" font-family="Open Sans" font-size="10pt" font-style="normal" font-weight="normal" text-decoration="normal" x="31.183570861816406" y="10.4" text-anchor="middle" dominant-baseline="alphabetic">  barrios   </text><text fill="#000000" stroke="none" font-family="Open Sans" font-size="10pt" font-style="normal" font-weight="normal" text-decoration="normal" x="31.183570861816406" y="23.400000000000002" text-anchor="middle" dominant-baseline="alphabetic">populares</text></g></g><g id="_9A958679-2F16-4409-8A3B-4DC385AF5C1F" transform="matrix(1,0,0,1,588.2990654205607,369.3421052631579)"><g><path fill="none" stroke="none"/></g><g transform="matrix(0.9345794392523364,0,0,0.8771929824561403,0,0)"><g transform="matrix(1,0,0,1,0,0)"><path fill="none" stroke="#000000" id="_9A958679-2F16-4409-8A3B-4DC385AF5C1F?shapeType=BORDER&amp;renderType=STROKE" paint-order="fill stroke markers" d=" M 0 0 M 16.5 1.5 L 108.5 1.5 L 108.5 43.5 L 93.5 58.5 L 1.5 58.5 L 1.5 16.5 L 16.5 1.5 Z" stroke-miterlimit="10" stroke-width="1.5" stroke-dasharray=""/></g></g><g transform="matrix(1,0,0,1,5.606864929199219,18.5)"><text fill="#000000" stroke="none" font-family="Open Sans" font-size="10pt" font-style="normal" font-weight="normal" text-decoration="normal" x="44.39313507080078" y="10.4" text-anchor="middle" dominant-baseline="alphabetic">Tiene Sintoma</text></g></g><g id="_DCB3F005-D6EA-4B21-AC44-E142F2E6E4FD#_2B112637-47B9-464D-BE3B-3693DB91757B"><g><path fill="none" stroke="#000000" paint-order="fill stroke markers" d=" M 817.367088607595 374 L 870 320" stroke-miterlimit="10" stroke-dasharray=""/></g><g transform="matrix(-0.697983949732236,0.7161134029720346,-0.7161134029720346,-0.697983949732236,817.367088607595,374)"/><g transform="matrix(0.7161134029720345,0.697983949732236,-0.697983949732236,0.7161134029720345,866.4194329851398,316.5100802513388)"><path fill="#000000" stroke="#000000" paint-order="fill stroke markers" d=" M 10 15 L 0 15 L 5 0 Z" stroke-miterlimit="10" stroke-dasharray=""/></g><g transform="matrix(1,0,0,1,824.5282226373153,340.02016050267764)"/></g><g id="_DCB3F005-D6EA-4B21-AC44-E142F2E6E4FD#_6E68F50B-2286-4498-8785-6D0CE36AE418"><g><path fill="none" stroke="#000000" paint-order="fill stroke markers" d=" M 833.3928571428571 238 L 695 83" stroke-miterlimit="10" stroke-dasharray=""/></g><g transform="matrix(0.6660157693088522,0.7459376616259148,-0.7459376616259148,0.6660157693088522,833.3928571428571,238)"/><g transform="matrix(0.7459376616259149,-0.6660157693088521,0.6660157693088521,0.7459376616259149,691.2703116918705,86.33007884654425)"><path fill="#000000" stroke="#000000" paint-order="fill stroke markers" d=" M 10 15 L 0 15 L 5 0 Z" stroke-miterlimit="10" stroke-dasharray=""/></g><g transform="matrix(1,0,0,1,705.0542282568025,153.8398423069115)"/></g><g id="_DCB3F005-D6EA-4B21-AC44-E142F2E6E4FD#_D5DD4F7F-E63F-43AA-AF42-282305735703"><g><path fill="none" stroke="#000000" paint-order="fill stroke markers" d=" M 763.5263157894736 374 L 681 304" stroke-miterlimit="10" stroke-dasharray=""/></g><g transform="matrix(0.7626109159669978,0.6468574733648647,-0.6468574733648647,0.7626109159669978,763.5263157894736,374)"/><g transform="matrix(0.6468574733648644,-0.762610915966998,0.762610915966998,0.6468574733648644,677.7657126331757,307.813054579835)"><path fill="#000000" stroke="#000000" paint-order="fill stroke markers" d=" M 10 15 L 0 15 L 5 0 Z" stroke-miterlimit="10" stroke-dasharray=""/></g><g transform="matrix(1,0,0,1,687.4685747336488,331.37389084033003)"/></g><g id="_DCB3F005-D6EA-4B21-AC44-E142F2E6E4FD#_BB1036B9-3974-4CC0-A83F-BD2CB001F680"><g><path fill="none" stroke="#000000" paint-order="fill stroke markers" d=" M 682.7857142857143 254 L 695 83" stroke-miterlimit="10" stroke-dasharray=""/></g><g transform="matrix(-0.07124704998790952,0.997458699830735,-0.997458699830735,-0.07124704998790952,682.7857142857143,254)"/><g transform="matrix(0.997458699830735,0.07124704998790936,-0.07124704998790936,0.997458699830735,690.0127065008463,82.64376475006046)"><path fill="#000000" stroke="#000000" paint-order="fill stroke markers" d=" M 10 15 L 0 15 L 5 0 Z" stroke-miterlimit="10" stroke-dasharray=""/></g><g transform="matrix(1,0,0,1,692.7603012840216,167.7875295001209)"/></g><g id="_DCB3F005-D6EA-4B21-AC44-E142F2E6E4FD#_C3013B49-B0AA-4D55-A8A1-D14D248908E2"><g><path fill="none" stroke="#000000" paint-order="fill stroke markers" d=" M 160.8942065491184 455 L 695 83" stroke-miterlimit="10" stroke-dasharray=""/></g><g transform="matrix(-0.8205823027900025,0.5715283758028613,-0.5715283758028613,-0.8205823027900025,160.8942065491184,455)"/><g transform="matrix(0.5715283758028614,0.8205823027900024,-0.8205823027900024,0.5715283758028614,692.1423581209857,78.89708848605)"><path fill="#000000" stroke="#000000" paint-order="fill stroke markers" d=" M 10 15 L 0 15 L 5 0 Z" stroke-miterlimit="10" stroke-dasharray=""/></g><g transform="matrix(1,0,0,1,351.6041567535875,260.7941769721)"/></g><g id="_DCB3F005-D6EA-4B21-AC44-E142F2E6E4FD#_3DB5C59B-5F0B-4D01-B13F-D570793EE740"><g><path fill="none" stroke="#000000" paint-order="fill stroke markers" d=" M 312.9729277996186 455 L 695 83" stroke-miterlimit="10" stroke-dasharray=""/></g><g transform="matrix(-0.7164465615854582,0.6976419743624765,-0.6976419743624765,-0.7164465615854582,312.9729277996186,455)"/><g transform="matrix(0.6976419743624765,0.716446561585458,-0.716446561585458,0.6976419743624765,691.5117901281876,79.41776719207272)"><path fill="#000000" stroke="#000000" paint-order="fill stroke markers" d=" M 10 15 L 0 15 L 5 0 Z" stroke-miterlimit="10" stroke-dasharray=""/></g><g transform="matrix(1,0,0,1,439.31822748488827,261.83553438414543)"/></g><g id="_DCB3F005-D6EA-4B21-AC44-E142F2E6E4FD#_21CFC388-AAF8-4DB4-8B43-86551E25D2A1"><g><path fill="none" stroke="#000000" paint-order="fill stroke markers" d=" M 1126.3086419753085 385 L 1127 329" stroke-miterlimit="10" stroke-dasharray=""/></g><g transform="matrix(-0.012344738281671137,0.9999238008152206,-0.9999238008152206,-0.012344738281671137,1126.3086419753085,385)"/><g transform="matrix(0.9999238008152207,0.012344738281670976,-0.012344738281670976,0.9999238008152207,1122.000380995924,328.93827630859164)"><path fill="#000000" stroke="#000000" paint-order="fill stroke markers" d=" M 10 15 L 0 15 L 5 0 Z" stroke-miterlimit="10" stroke-dasharray=""/></g><g transform="matrix(1,0,0,1,1136.3078799834607,356.8765526171833)"/></g><g id="_DCB3F005-D6EA-4B21-AC44-E142F2E6E4FD#_9C5DED75-05ED-4229-8A6F-8715397BDA99"><g><path fill="none" stroke="#000000" paint-order="fill stroke markers" d=" M 1028.061224489796 228 L 743.9795918367347 83" stroke-miterlimit="10" stroke-dasharray=""/></g><g transform="matrix(0.8906852049326744,0.4546205733510526,-0.4546205733510526,0.8906852049326744,1028.061224489796,228)"/><g transform="matrix(0.4546205733510524,-0.8906852049326746,0.8906852049326746,0.4546205733510524,741.7064889699794,87.45342602466337)"><path fill="#000000" stroke="#000000" paint-order="fill stroke markers" d=" M 10 15 L 0 15 L 5 0 Z" stroke-miterlimit="10" stroke-dasharray=""/></g><g transform="matrix(1,0,0,1,801.4980934035084,146.59314795067326)"/></g><g id="_DCB3F005-D6EA-4B21-AC44-E142F2E6E4FD#_EBE69791-5CE6-4E9D-A05A-472F19D273BA"><g><path fill="none" stroke="#000000" paint-order="fill stroke markers" d=" M 343 58 L 645 58" stroke-miterlimit="10" stroke-dasharray="4,4"/></g><g transform="matrix(-1,1.2246467991473532e-16,-1.2246467991473532e-16,-1,343,58)"/><g transform="matrix(6.123233995736766e-17,1,-1,6.123233995736766e-17,645,53)"><path fill="#000000" stroke="#000000" paint-order="fill stroke markers" d=" M 0 10 L 5 0 L 10 10" stroke-miterlimit="10" stroke-dasharray=""/></g><g transform="matrix(1,0,0,1,394,48)"/></g><g transform="matrix(1,0,0,1,433.29906542056074,470)"/><g transform="matrix(1,0,0,1,743,374)"/><g transform="matrix(1,0,0,1,779,238)"/><g transform="matrix(1,0,0,1,631,254)"/><g transform="matrix(1,0,0,1,75,455)"/><g transform="matrix(1,0,0,1,237.29906542056074,455)"/><g transform="matrix(1,0,0,1,1076,385)"/><g transform="matrix(1,0,0,1,1012,228)"/><g transform="matrix(1,0,0,1,645,33)"/><g transform="matrix(1,0,0,1,243,33)"/><g transform="matrix(1,0,0,1,588.2990654205607,369.3421052631579)"/><g id="_75589F7A-AA34-438F-95A9-A93A205E0D70" transform="matrix(1,0,0,1,435,369)"><g><path fill="none" stroke="none"/></g><g transform="matrix(1,0,0,1,0,0)"><path fill="none" stroke="rgb(0,0,0)" id="_75589F7A-AA34-438F-95A9-A93A205E0D70?shapeType=BORDER&amp;renderType=STROKE" paint-order="fill stroke markers" d=" M 0 0 L 100 0 L 100 50 L 0 50 L 0 0 Z Z" stroke-miterlimit="10" stroke-width="1.5" stroke-dasharray=""/></g><g transform="matrix(1,0,0,1,21.10101318359375,12)"><text fill="#000000" stroke="none" font-family="Open Sans" font-size="10pt" font-style="normal" font-weight="normal" text-decoration="normal" x="28.89898681640625" y="10.4" text-anchor="middle" dominant-baseline="alphabetic">   Tiene    </text><text fill="#000000" stroke="none" font-family="Open Sans" font-size="10pt" font-style="normal" font-weight="normal" text-decoration="normal" x="28.89898681640625" y="23.400000000000002" text-anchor="middle" dominant-baseline="alphabetic">Sintomas</text></g></g><g id="_DCB3F005-D6EA-4B21-AC44-E142F2E6E4FD#_B8673DE0-0A45-4517-924A-5F7B53D277C6"><g><path fill="none" stroke="#000000" paint-order="fill stroke markers" d=" M 483.85858337432364 470 L 485 419" stroke-miterlimit="10" stroke-dasharray=""/></g><g transform="matrix(-0.02237511504316462,0.9997496457747835,-0.9997496457747835,-0.02237511504316462,483.85858337432364,470)"/><g transform="matrix(0.9997496457747835,0.02237511504316446,-0.02237511504316446,0.9997496457747835,480.0012517711261,418.88812442478417)"><path fill="#000000" stroke="#000000" paint-order="fill stroke markers" d=" M 10 15 L 0 15 L 5 0 Z" stroke-miterlimit="10" stroke-dasharray=""/></g><g transform="matrix(1,0,0,1,493.8560798320715,444.27624884956833)"/></g><g id="_DCB3F005-D6EA-4B21-AC44-E142F2E6E4FD#_76CA8C5D-2C21-405D-A15E-6344BE6F8F21"><g><path fill="none" stroke="#000000" paint-order="fill stroke markers" d=" M 588.2990654205607 394.17651554471996 L 535 394" stroke-miterlimit="10" stroke-dasharray="4,4"/></g><g transform="matrix(0.9999945160541404,0.003311776207058569,-0.003311776207058569,0.9999945160541404,588.2990654205607,394.17651554471996)"/><g transform="matrix(0.003311776207058398,-0.9999945160541404,0.9999945160541404,0.003311776207058398,534.9834411189647,398.9999725802707)"><path fill="#000000" stroke="#000000" paint-order="fill stroke markers" d=" M 0 10 L 5 0 L 10 10" stroke-miterlimit="10" stroke-dasharray=""/></g><g transform="matrix(1,0,0,1,535.0331177620706,384.08831261181854)"/></g><g id="_DCB3F005-D6EA-4B21-AC44-E142F2E6E4FD#_6BD28F45-9006-4B3A-9EBE-5DA2F0B4E78F"><g><path fill="none" stroke="#000000" paint-order="fill stroke markers" d=" M 501.88102893890675 369 L 695 83" stroke-miterlimit="10" stroke-dasharray=""/></g><g transform="matrix(-0.5596101496984373,0.8287559836010191,-0.8287559836010191,-0.5596101496984373,501.88102893890675,369)"/><g transform="matrix(0.8287559836010191,0.5596101496984373,-0.5596101496984373,0.8287559836010191,690.8562200819949,80.20194925150781)"><path fill="#000000" stroke="#000000" paint-order="fill stroke markers" d=" M 10 15 L 0 15 L 5 0 Z" stroke-miterlimit="10" stroke-dasharray=""/></g><g transform="matrix(1,0,0,1,550.7670593356197,220.40389850301563)"/></g><g transform="matrix(1,0,0,1,435,369)"/></g></g></svg>